<?xml version="1.0" encoding="UTF-8" standalone="no"?>
<!-- Created with Inkscape (http://www.inkscape.org/) -->

<svg
   version="1.1"
   id="svg2"
   width="2614"
   height="570"
   viewBox="0 0 2614 570"
   sodipodi:docname="logoedicoweb.svg"
   inkscape:version="1.1.1 (3bf5ae0d25, 2021-09-20)"
   xmlns:inkscape="http://www.inkscape.org/namespaces/inkscape"
   xmlns:sodipodi="http://sodipodi.sourceforge.net/DTD/sodipodi-0.dtd"
   xmlns="http://www.w3.org/2000/svg"
   xmlns:svg="http://www.w3.org/2000/svg">
  <defs
     id="defs6" />
  <sodipodi:namedview
     id="namedview4"
     pagecolor="#ffffff"
     bordercolor="#666666"
     borderopacity="1.0"
     inkscape:pageshadow="2"
     inkscape:pageopacity="0.0"
     inkscape:pagecheckerboard="0"
     showgrid="false"
     inkscape:zoom="0.21939556"
     inkscape:cx="1150.8893"
     inkscape:cy="904.7585"
     inkscape:window-width="1366"
     inkscape:window-height="705"
     inkscape:window-x="-8"
     inkscape:window-y="-8"
     inkscape:window-maximized="1"
     inkscape:current-layer="g8"
     showguides="true"
     inkscape:guide-bbox="true" />
  <g
     inkscape:groupmode="layer"
     inkscape:label="Image"
     id="g8">
    <g
       id="g5740-2-5"
       style="fill:#01b46d;fill-opacity:1"
       transform="matrix(2.0551764,0,0,2.5670886,1554.6844,-1489.6168)"
       inkscape:export-filename="E:\blog\assets\logo\logoedicoweb1.png"
       inkscape:export-xdpi="96"
       inkscape:export-ydpi="96">
      <path
         style="opacity:1;fill:#01b46d;fill-opacity:1;stroke-width:0.75"
         d="m -408.13829,597.0511 c -2.23651,3.81562 -5.54682,9.54229 -7.35626,12.72592 l -3.28987,5.78842 -47.13219,0.0241 c -43.89711,0.0224 -47.62932,0.12555 -54.375,1.50243 -24.13459,4.92623 -43.8813,18.16366 -56.99369,38.20634 -9.12753,13.95172 -13.5991,28.15716 -14.1856,45.06531 -0.86461,24.92582 7.91939,47.13296 25.66982,64.89675 11.40516,11.41375 24.66166,18.95128 40.92235,23.26811 7.64977,2.03083 8.45193,2.09041 32.34561,2.40251 l 129.08118,0.12369 c 17.9355,-0.44664 23.4498,-1.18929 33.64525,-4.53124 29.14245,-9.55254 51.73458,-35.00982 58.15926,-65.53503 1.70619,-8.10658 1.85506,-10.15401 1.49967,-20.625 -0.4443,-13.09052 -1.86439,-20.01848 -6.1611,-30.05709 -5.56618,-13.00456 -10.91425,-20.85032 -20.72531,-30.40455 -14.00575,-13.63911 -34.18798,-22.76652 -53.19504,-24.05743 l -6.44479,-0.43771 -8.36771,14.38812 c -4.60224,7.91343 -8.36771,14.49869 -8.36771,14.63388 0,0.13519 5.82188,0.42139 12.9375,0.63599 14.18379,0.42779 20.04916,1.62743 28.28576,5.78525 7.08475,3.57637 10.75779,6.38777 17.1024,13.09042 11.95012,12.62447 17.34047,29.11645 15.18529,46.45994 -2.51944,20.27478 -16.41224,38.70271 -35.06915,46.51702 -11.25648,4.71469 -6.70411,4.47679 -91.3168,4.77207 -80.08805,0.27948 -86.81749,0.0822 -95.12588,-2.78927 -9.83507,-3.39908 -16.47714,-7.58131 -23.75287,-14.95621 -11.30679,-11.46091 -16.69374,-24.54334 -16.70985,-40.58047 -0.009,-8.72429 0.96091,-13.98387 3.97497,-21.56058 6.71257,-16.87405 21.04247,-29.65991 39.39067,-35.14634 4.05957,-1.21388 9.66842,-1.37587 60.68835,-1.75278 l 56.21539,-0.4153 12.22954,-21 c 6.72625,-11.55 12.69137,-21.84375 13.25582,-22.875 0.56446,-1.03125 2.10522,-3.81562 3.42391,-6.1875 l 2.39762,-4.3125 h -16.88759 -16.88758 z"
         id="path5053-0-4"
         sodipodi:nodetypes="cscssssssccsssssscsssssssssssssscssscccc" />
      <ellipse
         style="opacity:1;fill:#01b46d;fill-opacity:1;stroke:none;stroke-width:0.636239"
         id="path5312-0-58"
         cx="-268.56802"
         cy="-702.78357"
         transform="scale(1,-1)"
         rx="29.319862"
         ry="29.418076" />
      <ellipse
         style="opacity:1;fill:#01b46d;fill-opacity:1;stroke:none;stroke-width:0.636239"
         id="path5312-5-8-9"
         cx="-591.75134"
         cy="-704.27325"
         transform="scale(1,-1)"
         rx="29.319862"
         ry="29.418076" />
      <ellipse
         style="fill:#01b46d;fill-opacity:1;fill-rule:evenodd;stroke-width:0.409126"
         id="path1836"
         cx="-482.12109"
         cy="704.2713"
         rx="31.825907"
         ry="27.077038" />
      <ellipse
         style="fill:#01b46d;fill-opacity:1;fill-rule:evenodd;stroke-width:0.409126"
         id="path1836-9"
         cx="-381.7471"
         cy="703.82739"
         rx="31.825907"
         ry="27.077038" />
    </g>
    <text
       xml:space="preserve"
       style="font-style:normal;font-variant:normal;font-weight:normal;font-stretch:normal;font-size:271.482px;line-height:1.25;font-family:'Eras Bold ITC';-inkscape-font-specification:'Eras Bold ITC, Normal';font-variant-ligatures:normal;font-variant-caps:normal;font-variant-numeric:normal;font-variant-east-asian:normal;fill:#01b46d;fill-opacity:1;stroke:none;stroke-width:7.59402"
       x="1000.4211"
       y="544.06787"
       id="text13912-3-1"
       transform="scale(1.1278291,0.88665915)"
       inkscape:export-filename="E:\blog\assets\logo\logoedicoweb1.png"
       inkscape:export-xdpi="96"
       inkscape:export-ydpi="96"><tspan
         sodipodi:role="line"
         id="tspan13910-3-6"
         style="font-style:normal;font-variant:normal;font-weight:normal;font-stretch:normal;font-size:271.482px;font-family:'Eras Bold ITC';-inkscape-font-specification:'Eras Bold ITC, Normal';font-variant-ligatures:normal;font-variant-caps:normal;font-variant-numeric:normal;font-variant-east-asian:normal;fill:#01b46d;fill-opacity:1;stroke-width:7.59402"
         x="1000.4211"
         y="544.06787">WEB</tspan></text>
    <text
       xml:space="preserve"
       style="font-style:normal;font-variant:normal;font-weight:normal;font-stretch:normal;font-size:222.178px;line-height:1.25;font-family:'Eras Bold ITC';-inkscape-font-specification:'Eras Bold ITC, Normal';font-variant-ligatures:normal;font-variant-caps:normal;font-variant-numeric:normal;font-variant-east-asian:normal;fill:#000000;fill-opacity:1;stroke:none;stroke-width:4.89398"
       x="1111.875"
       y="292.91638"
       id="text13912-3-1-7"
       transform="scale(1.0121817,0.9879649)"
       inkscape:export-filename="E:\blog\assets\logo\logoedicoweb1.png"
       inkscape:export-xdpi="96"
       inkscape:export-ydpi="96"><tspan
         sodipodi:role="line"
         id="tspan13910-3-6-1"
         style="font-style:normal;font-variant:normal;font-weight:normal;font-stretch:normal;font-size:222.178px;font-family:'Eras Bold ITC';-inkscape-font-specification:'Eras Bold ITC, Normal';font-variant-ligatures:normal;font-variant-caps:normal;font-variant-numeric:normal;font-variant-east-asian:normal;fill:#000000;stroke-width:4.89398"
         x="1111.875"
         y="292.91638">EDICO</tspan></text>
  </g>
</svg>
